<svg width="24" height="24" viewBox="0 0 24 24" fill="#ffffff" xmlns="http://www.w3.org/2000/svg">
<path d="M22.46 6.011a8.96 8.96 0 01-2.566.704 4.47 4.47 0 001.964-2.475 8.94 8.94 0 01-2.828 1.08A4.48 4.48 0 0015.5 4c-2.5 0-4.53 2.02-4.53 4.51 0 .35.04.69.11 1.02-3.76-.19-7.1-1.99-9.33-4.73a4.47 4.47 0 00-.61 2.27 4.48 4.48 0 001.99 3.73 4.51 4.51 0 01-2.05-.57v.06c0 2.18 1.57 4 3.65 4.42a4.54 4.54 0 01-2.04.08c.57 1.76 2.23 3.05 4.2 3.08a9 9 0 01-5.58 1.92c-.36 0-.72-.02-1.07-.06A12.7 12.7 0 007.07 21c8.29 0 12.82-6.85 12.82-12.79 0-.2 0-.39-.02-.58A9.1 9.1 0 0022.46 6z"></path>
</svg>
